<svg style="height: 512px; width: 512px;" xmlns="http://www.w3.org/2000/svg" viewBox="0 0 512 512"><defs><filter id="shadow-1" height="300%" width="300%" x="-100%" y="-100%"><feFlood flood-color="rgba(0, 0, 0, 1)" result="flood"></feFlood><feComposite in="flood" in2="SourceGraphic" operator="atop" result="composite"></feComposite><feGaussianBlur in="composite" stdDeviation="15" result="blur"></feGaussianBlur><feOffset dx="0" dy="0" result="offset"></feOffset><feComposite in="SourceGraphic" in2="offset" operator="over"></feComposite></filter></defs><rect fill="#00007f" fill-opacity="0" height="512" width="512" rx="32" ry="32"></rect><g class="" style="" transform="translate(0,0)"><path d="M105.4 26.28C122.1 96.08 82.98 121 27 132.6c70.72 24.3 36.69 48.4 21.99 72.6 66.01-5.1 87.51 25.8 87.41 74.3 36.5-20.1 51.6-62.3 147.1-21.6-23.4-43.1-31.9-75.3 20.3-118.5-39.7-14.2-77-30.2-58.1-81.17-56.3 37.85-98.9 5.52-140.3-31.95zm66.9 67.89a62.23 62.23 0 0 1 62.2 62.23 62.23 62.23 0 0 1-62.2 62.2 62.23 62.23 0 0 1-62.2-62.2 62.23 62.23 0 0 1 62.2-62.23zM318.9 218.2c17.3 81.3-25 98-89 91.2 30.9 31.9 50.2 68 16.1 123.1 45.3-11.2 88.5-13.6 113.9 49.8 22.5-46.1 64.8-52.4 116.7-38.7-17.9-27.7-38-55.4 16.9-82.8-37-25.5-74.3-50.7-49.4-124.5-45.3 51-86.7 40.1-125.2-18.1zm47.4 76.7a62.23 62.23 0 0 1 62.2 62.2 62.23 62.23 0 0 1-62.2 62.2 62.23 62.23 0 0 1-62.2-62.2 62.23 62.23 0 0 1 62.2-62.2z" fill="#fff" fill-opacity="1" filter="url(#shadow-1)"></path></g></svg>