<svg style="height: 512px; width: 512px;" xmlns="http://www.w3.org/2000/svg" viewBox="0 0 512 512"><defs><filter id="shadow-1" height="300%" width="300%" x="-100%" y="-100%"><feFlood flood-color="rgba(0, 0, 0, 1)" result="flood"></feFlood><feComposite in="flood" in2="SourceGraphic" operator="atop" result="composite"></feComposite><feGaussianBlur in="composite" stdDeviation="15" result="blur"></feGaussianBlur><feOffset dx="0" dy="0" result="offset"></feOffset><feComposite in="SourceGraphic" in2="offset" operator="over"></feComposite></filter></defs><rect fill="#00007f" fill-opacity="0" height="512" width="512" rx="32" ry="32"></rect><g class="" style="" transform="translate(0,0)"><path d="M41 25v78h430V25H41zm254 23h18v32h-18V48zm121 0a16 16 0 0 1 16 16 16 16 0 0 1-16 16 16 16 0 0 1-16-16 16 16 0 0 1 16-16zM64 55h48v18H64V55zm80 0h48v18h-48V55zm80 0h48v18h-48V55zm-119 66v30h302v-30H105zm-64 48v78h430v-78H41zm254 23h18v32h-18v-32zm121 0a16 16 0 0 1 16 16 16 16 0 0 1-16 16 16 16 0 0 1-16-16 16 16 0 0 1 16-16zm-352 7h48v18H64v-18zm80 0h48v18h-48v-18zm80 0h48v18h-48v-18zm-119 66v30h302v-30H105zm-64 48v78h430v-78H41zm254 23h18v32h-18v-32zm121 0a16 16 0 0 1 16 16 16 16 0 0 1-16 16 16 16 0 0 1-16-16 16 16 0 0 1 16-16zm-352 7h48v18H64v-18zm80 0h48v18h-48v-18zm80 0h48v18h-48v-18zm13 66v30h38v-30h-38zM25 457v30h130.2l20-30H25zm171.8 0l-20 30h158.4l-20-30H196.8zm140 0l20 30H487v-30H336.8z" fill="#fff" fill-opacity="1" filter="url(#shadow-1)"></path></g></svg>