<svg xmlns="http://www.w3.org/2000/svg" xmlns:xlink="http://www.w3.org/1999/xlink" version="1.1" x="0px" y="0px" viewBox="0 0 100 125" enable-background="new 0 0 100 100" xml:space="preserve"><path d="M77.234,59.892v-1.146h0.928c0.443,0,0.802-0.359,0.802-0.802v-3.319c0-0.442-0.358-0.802-0.802-0.802h-1.051V40.544H77.8  c0.442,0,0.802-0.359,0.802-0.802v-9.237c0-1.914-1.559-3.472-3.473-3.472c-1.916,0-3.473,1.558-3.473,3.472v0.571h-1.921v-0.299  c0-1.795-1.46-3.256-3.255-3.256h-0.114c-0.653-1.5-2.146-2.553-3.883-2.553h-6.246V9.513c0-2.336-1.9-4.236-4.236-4.236h-2.29  c-2.336,0-4.236,1.9-4.236,4.236v15.456h-6.247c-1.738,0-3.231,1.054-3.884,2.555c-1.788,0.008-3.239,1.465-3.239,3.254v0.299  h-1.599v-0.571c0-1.914-1.558-3.472-3.473-3.472s-3.473,1.558-3.473,3.472v9.237c0,0.442,0.358,0.802,0.801,0.802h0.655v13.279H24  c-0.443,0-0.801,0.359-0.801,0.802v3.319c0,0.442,0.358,0.802,0.801,0.802h1.018v1.11c-2.077,0.817-3.479,2.836-3.479,5.107  c0,1.079,0.313,2.123,0.905,3.021c0.148,0.226,0.4,0.36,0.669,0.36c0.008,0,0.016,0,0.024-0.001c0.278-0.008,0.531-0.159,0.67-0.4  l1.624-2.812h3.385l1.54,2.665c0.142,0.245,0.402,0.397,0.685,0.401c0.003,0,0.006,0,0.009,0c0.28,0,0.539-0.146,0.685-0.386  c0.521-0.856,0.796-1.842,0.796-2.85c0-2.225-1.367-4.23-3.391-5.072v-1.146h0.929c0.443,0,0.801-0.359,0.801-0.802v-3.319  c0-0.442-0.358-0.802-0.801-0.802h-0.929V40.544h0.566c0.443,0,0.801-0.359,0.801-0.802v-4.467h1.599v0.407  c0,1.765,1.414,3.2,3.168,3.247c0.519,1.382,1.73,2.419,3.217,2.682v4.311c0,0.442,0.358,0.802,0.801,0.802h0.839v2.711  c0,2.335,1.9,4.235,4.236,4.235h3.816v2.212h-1.298c-2.245,0-4.069,1.76-4.209,3.97h-1.821c-0.443,0-0.801,0.359-0.801,0.802v5.191  c0,0.442,0.358,0.802,0.801,0.802h1.717v1.798c0,0.061,0.021,0.114,0.034,0.171c-0.013,0.057-0.034,0.109-0.034,0.169V87.14h-1.374  c-0.443,0-0.801,0.359-0.801,0.802v2.004h-2.062c-2.21,0-4.007,1.798-4.007,4.008c0,0.442,0.358,0.802,0.801,0.802h11.106  c0.443,0,0.801-0.359,0.801-0.802v-3.206c0-0.011-0.005-0.019-0.006-0.028c0-0.011,0.006-0.02,0.006-0.029v-2.748  c0-0.051-0.02-0.095-0.029-0.143c0.009-0.048,0.029-0.092,0.029-0.143V71.113c0.487,0.623,0.832,1.365,0.966,2.188  c0.063,0.388,0.398,0.673,0.791,0.673h4.425c0.394,0,0.728-0.285,0.791-0.673c0.134-0.823,0.479-1.565,0.966-2.188v16.543  c0,0.051,0.02,0.095,0.029,0.143c-0.01,0.048-0.029,0.092-0.029,0.143v2.748c0,0.01,0.006,0.019,0.006,0.029  c0,0.01-0.006,0.018-0.006,0.028v3.206c0,0.442,0.358,0.802,0.801,0.802h11.107c0.006-0.001,0.013-0.001,0.02,0  c0.442,0,0.801-0.359,0.801-0.802c0-0.068-0.008-0.136-0.024-0.199c-0.104-2.117-1.859-3.809-4.003-3.809h-2.061v-2.004  c0-0.442-0.359-0.802-0.802-0.802h-1.374V68.784c0-0.06-0.021-0.113-0.033-0.169c0.012-0.057,0.033-0.11,0.033-0.171v-1.798h1.412  c0.443,0,0.802-0.359,0.802-0.802v-5.191c0-0.442-0.358-0.802-0.802-0.802h-1.809c-0.139-2.23-1.975-3.97-4.221-3.97h-1.297V53.67  h3.816c2.336,0,4.236-1.9,4.236-4.235v-2.711h0.84c0.443,0,0.801-0.359,0.801-0.802v-4.311c1.484-0.262,2.693-1.295,3.215-2.673  h0.045c1.795,0,3.255-1.461,3.255-3.256v-0.407h1.921v4.467c0,0.442,0.357,0.802,0.801,0.802h0.533v13.279h-0.896  c-0.442,0-0.801,0.359-0.801,0.802v3.319c0,0.442,0.358,0.802,0.801,0.802h1.019v1.11c-2.077,0.817-3.479,2.836-3.479,5.107  c0,1.078,0.313,2.123,0.904,3.021c0.148,0.225,0.4,0.36,0.67,0.36c0.008,0,0.016,0,0.023-0.001c0.277-0.008,0.531-0.159,0.67-0.4  l1.625-2.812h3.385l1.538,2.665c0.142,0.245,0.401,0.397,0.685,0.401c0.3,0.028,0.547-0.144,0.694-0.385  c0.521-0.856,0.797-1.843,0.797-2.851C80.624,62.739,79.258,60.733,77.234,59.892z M47.078,22.91h7.557v1.754h-7.557V22.91z   M49.711,6.88h2.29c1.452,0,2.634,1.181,2.634,2.633v11.794h-7.557V9.513C47.078,8.061,48.259,6.88,49.711,6.88z M73.258,38.94  v-1.45h3.74v1.45H73.258z M75.129,28.637c1.031,0,1.869,0.838,1.869,1.868v5.382h-3.74v-5.382  C73.258,29.475,74.098,28.637,75.129,28.637z M27.034,28.637c1.031,0,1.87,0.838,1.87,1.868v5.382h-3.74v-5.382  C25.164,29.475,26.002,28.637,27.034,28.637z M28.904,38.94h-3.74v-1.45h3.74V38.94z M28.115,61.228  c1.656,0.479,2.812,2.015,2.812,3.736c0,0.186-0.013,0.37-0.04,0.553l-0.916-1.586c-0.143-0.248-0.408-0.401-0.694-0.401h-4.31  c-0.286,0-0.551,0.153-0.694,0.401l-1.052,1.822c-0.053-0.258-0.081-0.522-0.081-0.789c0-1.757,1.187-3.301,2.885-3.755  c0.351-0.094,0.594-0.411,0.594-0.774v-1.688h0.916v1.712C27.536,60.815,27.772,61.129,28.115,61.228z M29.266,57.143h-4.465v-1.716  h4.465V57.143z M27.536,53.823H26.62V40.544h0.916V53.823z M30.506,33.672V32.68h1.599v0.992H30.506z M33.708,35.683v-4.905  c0-0.785,0.552-1.442,1.288-1.609c0,0.014-0.004,0.025-0.004,0.038v8.084C34.258,37.122,33.708,36.467,33.708,35.683z M44.175,69.34  c0.447,0.09,0.865,0.253,1.26,0.457V87.14h-1.26V69.34z M42,88.743h3.435v1.145H42V88.743z M45.436,93.151h-9.366  c0.331-0.933,1.222-1.603,2.267-1.603h7.099V93.151z M65.945,93.151h-9.366v-1.603h7.099C64.723,91.549,65.615,92.219,65.945,93.151  z M60.014,89.888h-3.435v-1.145h3.435V89.888z M56.579,87.14V69.797c0.396-0.204,0.813-0.367,1.261-0.457v17.8H56.579z   M57.839,67.711c-2.515,0.374-4.589,2.206-5.263,4.66h-3.137c-0.675-2.454-2.749-4.286-5.264-4.66v-1.064h13.664V67.711z   M60.053,65.043H41.657v-3.588h18.396V65.043z M57.434,59.852H44.279c0.136-1.325,1.246-2.366,2.607-2.366h7.938  C56.186,57.485,57.299,58.515,57.434,59.852z M51.924,55.882h-2.137V53.67h2.137V55.882z M59.979,49.435  c0,1.451-1.183,2.632-2.635,2.632H44.368c-1.452,0-2.633-1.181-2.633-2.632v-2.711h18.244V49.435z M40.094,45.12v-3.434h21.525  v3.434H40.094z M65.117,37.449c0,1.452-1.182,2.634-2.634,2.634H39.229c-1.452,0-2.634-1.182-2.634-2.634v-8.243  c0-1.452,1.182-2.634,2.634-2.634h23.255c1.452,0,2.634,1.182,2.634,2.634V37.449z M68.133,35.683c0,0.829-0.615,1.511-1.413,1.628  v-8.104c0-0.02-0.005-0.038-0.006-0.058c0.8,0.115,1.419,0.798,1.419,1.629V35.683z M69.735,33.672V32.68h1.921v0.992H69.735z   M74.594,40.544h0.916v13.279h-0.916V40.544z M72.896,55.427h4.466v1.716h-4.466V55.427z M78.982,65.517l-0.916-1.586  c-0.143-0.248-0.408-0.401-0.693-0.401h-4.311c-0.287,0-0.551,0.153-0.694,0.401l-1.053,1.821c-0.053-0.257-0.08-0.521-0.08-0.788  c0-1.757,1.187-3.301,2.886-3.755c0.35-0.094,0.594-0.411,0.594-0.774v-1.688h0.916v1.712c0,0.357,0.236,0.671,0.579,0.77  c1.655,0.479,2.812,2.015,2.812,3.736C79.021,65.149,79.008,65.334,78.982,65.517z"/></svg>