<svg style="height: 512px; width: 512px;" xmlns="http://www.w3.org/2000/svg" viewBox="0 0 512 512"><defs><filter id="shadow-1" height="300%" width="300%" x="-100%" y="-100%"><feFlood flood-color="rgba(0, 0, 0, 1)" result="flood"></feFlood><feComposite in="flood" in2="SourceGraphic" operator="atop" result="composite"></feComposite><feGaussianBlur in="composite" stdDeviation="15" result="blur"></feGaussianBlur><feOffset dx="0" dy="0" result="offset"></feOffset><feComposite in="SourceGraphic" in2="offset" operator="over"></feComposite></filter></defs><rect fill="#00007f" fill-opacity="0" height="512" width="512" rx="32" ry="32"></rect><g class="" style="" transform="translate(0,0)"><path d="M252.314 19.957c-72.036.363-142.99 33.534-189.18 95.97-69.83 94.39-59.125 223.32 19.85 304.993l-37.238 50.332 151.22-22.613L174.35 297.42l-43.137 58.308c-44.08-54.382-47.723-133.646-4.16-192.53 30.676-41.466 77.863-63.504 125.758-63.753 16.344-.085 32.766 2.382 48.645 7.467l-6.963-46.55c-23.858-4.86-47.908-5.026-71.017-.997-59.232 7.322-113.994 39.918-148.157 91.215 35.65-65.89 103.774-105.918 176.043-107.744 1.673-.042 3.347-.063 5.023-.065 14.8-.01 29.748 1.596 44.597 4.905l48.608-7.268c-31.14-13.906-64.32-20.62-97.274-20.453zm212.93 22.055l-151.217 22.61 22.614 151.22 41.126-55.588c42.204 54.29 45.092 132.048 2.187 190.043-40.22 54.367-108.82 75.32-170.19 57.566l6.522 43.598c28.726 5.533 58.236 4.414 86.203-3.07 37.448-5.957 73.34-22.05 103.16-47.728-49.196 54.65-122.615 77.514-191.744 64.34l-55.8 8.344c99.03 43.7 218.402 14.77 285.51-75.938 69.13-93.445 59.34-220.743-17.483-302.53l39.114-52.866z" fill="#fff" fill-opacity="1" filter="url(#shadow-1)"></path></g></svg>