<svg style="height: 512px; width: 512px;" xmlns="http://www.w3.org/2000/svg" viewBox="0 0 512 512"><defs><filter id="shadow-1" height="300%" width="300%" x="-100%" y="-100%"><feFlood flood-color="rgba(0, 0, 0, 1)" result="flood"></feFlood><feComposite in="flood" in2="SourceGraphic" operator="atop" result="composite"></feComposite><feGaussianBlur in="composite" stdDeviation="15" result="blur"></feGaussianBlur><feOffset dx="0" dy="0" result="offset"></feOffset><feComposite in="SourceGraphic" in2="offset" operator="over"></feComposite></filter></defs><rect fill="#00007f" fill-opacity="0" height="512" width="512" rx="32" ry="32"></rect><g class="" style="" transform="translate(0,0)"><path d="M151 22v32h18V22h-18zm48 0v32h18V22h-18zm48 0v32h18V22h-18zm48 0v32h18V22h-18zm48 0v32h18V22h-18zM131.7 73L73 131.7v248.6l58.7 58.7h248.6l58.7-58.7V131.7L380.3 73H131.7zm60.3 46h128v18H192v-18zM22 151v18h32v-18H22zm436 0v18h32v-18h-32zm-339 32h274v146H119V183zm-97 16v18h32v-18H22zm436 0v18h32v-18h-32zm-321 2v110h238V201H137zM22 247v18h32v-18H22zm436 0v18h32v-18h-32zM22 295v18h32v-18H22zm436 0v18h32v-18h-32zM22 343v18h32v-18H22zm436 0v18h32v-18h-32zm-266 32h128v18H192v-18zm-41 83v32h18v-32h-18zm48 0v32h18v-32h-18zm48 0v32h18v-32h-18zm48 0v32h18v-32h-18zm48 0v32h18v-32h-18z" fill="#fff" fill-opacity="1" filter="url(#shadow-1)"></path></g></svg>