<svg style="height: 512px; width: 512px;" xmlns="http://www.w3.org/2000/svg" viewBox="0 0 512 512"><defs><filter id="shadow-1" height="300%" width="300%" x="-100%" y="-100%"><feFlood flood-color="rgba(0, 0, 0, 1)" result="flood"></feFlood><feComposite in="flood" in2="SourceGraphic" operator="atop" result="composite"></feComposite><feGaussianBlur in="composite" stdDeviation="15" result="blur"></feGaussianBlur><feOffset dx="0" dy="0" result="offset"></feOffset><feComposite in="SourceGraphic" in2="offset" operator="over"></feComposite></filter></defs><rect fill="#00007f" fill-opacity="0" height="512" width="512" rx="32" ry="32"></rect><g class="" style="" transform="translate(0,0)"><path d="M50 96c-9.972 0-18 8.028-18 18v300c0 9.972 8.028 18 18 18h412c9.972 0 18-8.028 18-18V114c0-9.972-8.028-18-18-18H50zm5 23h402v18H55v-18zm0 32h210v258H55V151zm18 18v222h7.03c.47-24.342 18.315-74.172 47.093-97.889C136.331 300.56 147.615 305 160 305c12.385 0 23.669-4.44 32.877-11.889C221.655 316.828 239.5 366.658 239.97 391H247V169H73zm222 14h146v18H295v-18zm-135 10c20.835 0 39 20.241 39 47s-18.165 47-39 47-39-20.241-39-47 18.165-47 39-47zm135 22h114v18H295v-18zm0 32h50v18h-50v-18zm80 0h66v18h-66v-18zm-16 96h98v18h-98v-18zm-32 32h130v18H327v-18z" fill="#fff" fill-opacity="1" filter="url(#shadow-1)"></path></g></svg>