<svg style="height: 512px; width: 512px;" xmlns="http://www.w3.org/2000/svg" viewBox="0 0 512 512"><defs><filter id="shadow-1" height="300%" width="300%" x="-100%" y="-100%"><feFlood flood-color="rgba(0, 0, 0, 1)" result="flood"></feFlood><feComposite in="flood" in2="SourceGraphic" operator="atop" result="composite"></feComposite><feGaussianBlur in="composite" stdDeviation="15" result="blur"></feGaussianBlur><feOffset dx="0" dy="0" result="offset"></feOffset><feComposite in="SourceGraphic" in2="offset" operator="over"></feComposite></filter></defs><rect fill="#00007f" fill-opacity="0" height="512" width="512" rx="32" ry="32"></rect><g class="" style="" transform="translate(0,0)"><path d="M290.352 13.213l-11.475 218.984 204.68-78.584a219.242 219.284 0 0 0-193.205-140.4zm-51.39 47.566A219.242 219.284 0 0 0 38.59 206.24a219.242 219.284 0 0 0 77.3 250.918 219.242 219.284 0 0 0 262.49-3.092 219.242 219.284 0 0 0 71.366-252.67l-204.682 78.583 12.24-218.943a219.242 219.284 0 0 0-18.34-.258z" fill="#fff" fill-opacity="1" filter="url(#shadow-1)"></path></g></svg>