<svg style="height: 512px; width: 512px;" xmlns="http://www.w3.org/2000/svg" viewBox="0 0 512 512"><defs><filter id="shadow-1" height="300%" width="300%" x="-100%" y="-100%"><feFlood flood-color="rgba(0, 0, 0, 1)" result="flood"></feFlood><feComposite in="flood" in2="SourceGraphic" operator="atop" result="composite"></feComposite><feGaussianBlur in="composite" stdDeviation="15" result="blur"></feGaussianBlur><feOffset dx="0" dy="0" result="offset"></feOffset><feComposite in="SourceGraphic" in2="offset" operator="over"></feComposite></filter></defs><rect fill="#00007f" fill-opacity="0" height="512" width="512" rx="32" ry="32"></rect><g class="" style="" transform="translate(0,0)"><path d="M239.283 27.155l-29.615 59.229-12.412-37.23L153 71.281v20.125l33.742-16.87 19.59 58.767 34.387-68.77 47.998 80 35.308-70.613L359 91.407V71.282l-43.025-21.511-28.694 57.384zM89 70.845v46h46v-46zm288 0v46h46v-46zm-304 64v302h94v-112h178v112h94v-302h-79.973l-32 128H184.973l-32-128zm101.027 10l4.5 18h154.946l4.5-18zm8.5 34l4.5 18h137.946l4.5-18zm208.473 27c13.7 0 25 11.3 25 25s-11.3 25-25 25-25-11.3-25-25 11.3-25 25-25zm-336 .816l-30 20v146.184h30zm136.027 6.184l4.5 18h120.946l4.5-18zm199.973 57c13.7 0 25 11.3 25 25s-11.3 25-25 25-25-11.3-25-25 11.3-25 25-25zm66 57v46h30v-46zm-66 7c13.7 0 25 11.3 25 25s-11.3 25-25 25-25-11.3-25-25 11.3-25 25-25zm-206 9v46h17.438L224 345.72l34.467 68.931 9.804-9.806H327v-62zm39 43.127l-10.438 20.873H185v46h142v-30h-51.271l-22.194 22.193zm233 4.873v46h30v-46zm-390 64l-40 30h108v-30zm310 0v30h108l-40-30z" fill="#fff" fill-opacity="1" filter="url(#shadow-1)"></path></g></svg>