<svg xmlns="http://www.w3.org/2000/svg" viewBox="0 0 640 640"><!--! Font Awesome Free 6.7.2 by @fontawesome - https://fontawesome.com License - https://fontawesome.com/license/free (Icons: CC BY 4.0, Fonts: SIL OFL 1.1, Code: MIT License) Copyright 2024 Fonticons, Inc. --><g transform="matrix(0.95,0,0,0.95,16,76.80000000000001)"><path d="M560 160A80 80 0 1 0 560 0a80 80 0 1 0 0 160zM55.9 512l325.2 0 75 0 122.8 0c33.8 0 61.1-27.4 61.1-61.1c0-11.2-3.1-22.2-8.9-31.8l-132-216.3C495 196.1 487.8 192 480 192s-15 4.1-19.1 10.7l-48.2 79L286.8 81c-6.6-10.6-18.3-17-30.8-17s-24.1 6.4-30.8 17L8.6 426.4C3 435.3 0 445.6 0 456.1C0 487 25 512 55.9 512z" fill="#ffffff"></path></g></svg>